<svg xmlns="http://www.w3.org/2000/svg" width="512" height="512" fill="none"><g clip-path="url(#clip0)"><rect width="512" height="512" fill="url(#paint0_linear)" rx="40"/><path fill="url(#paint1_linear)" d="M512 386.25V472a40 40 0 01-40 40H40a40 40 0 01-40-40V263.96c165.66 64.73 370.51 104.62 512 122.3z"/><g filter="url(#filter0_d)"><path fill="url(#paint2_linear)" d="M376.7 205.13H267.05L325.33 104H193.52L135.3 270.38h93.6L187.4 424l189.3-218.87z"/></g><g filter="url(#filter1_d)"><path fill="url(#paint3_linear)" d="M293.62 254.64v6.78c0 3.28-1.32 5.68-3.96 7.2-2.6 1.52-5.9 2.28-9.9 2.28-3.96 0-7.22-.76-9.78-2.28-2.52-1.52-3.78-3.92-3.78-7.2v-2.64c0-.92.8-1.38 2.4-1.38 1.6 0 2.4.46 2.4 1.38v3.24c0 1.64.82 2.84 2.46 3.6 1.68.72 3.78 1.08 6.3 1.08 2.56 0 4.7-.38 6.42-1.14 1.76-.76 2.64-1.94 2.64-3.54v-7.38c0-1.84-.32-3.08-.96-3.72-.6-.64-2-.96-4.2-.96h-10.32c-.8 0-1.2-.7-1.2-2.1 0-1.4.4-2.1 1.2-2.1h8.46l2.82-2.88c2.24-2.28 3.36-4.48 3.36-6.6v-.72c0-2.04-.36-3.5-1.08-4.38-.68-.92-1.88-1.38-3.6-1.38h-13.92c-.8 0-1.2-.7-1.2-2.1 0-1.4.4-2.1 1.2-2.1h13.92c3.44 0 5.88.8 7.32 2.4 1.44 1.6 2.16 4.12 2.16 7.56v1.02c0 1.16-.36 2.52-1.08 4.08a14.13 14.13 0 01-2.76 4.08l-1.32 1.32c2.12.4 3.64 1.26 4.56 2.58.96 1.32 1.44 3.32 1.44 6z"/></g><g filter="url(#filter2_d)"><path fill="url(#paint4_linear)" d="M205.38 213.56v1.02c0 2.32-1.28 5.04-3.84 8.16l-17.4 21.06h20.04c.8 0 1.2.7 1.2 2.1 0 1.4-.4 2.1-1.2 2.1H178.8c-.8 0-1.2-.7-1.2-2.1 0-.84.18-1.48.54-1.92l19.08-23.1c1.2-1.48 2.06-2.7 2.58-3.66a6.1 6.1 0 00.78-2.94v-.72c0-2.04-.36-3.5-1.08-4.38-.68-.92-1.88-1.38-3.6-1.38h-14.52c-.8 0-1.2-.7-1.2-2.1 0-1.4.4-2.1 1.2-2.1h14.52c3.44 0 5.88.8 7.32 2.4 1.44 1.6 2.16 4.12 2.16 7.56z"/></g><g filter="url(#filter3_d)"><path fill="url(#paint5_linear)" d="M249.4 172H229c-.8 0-1.2-.7-1.2-2.1 0-1.4.4-2.1 1.2-2.1h7.8v-36H229c-.8 0-1.2-.7-1.2-2.1 0-1.4.4-2.1 1.2-2.1h9c1.52 0 2.5.32 2.94.96.44.6.66 1.72.66 3.36v35.88h7.8c.8 0 1.2.7 1.2 2.1 0 1.4-.4 2.1-1.2 2.1z"/></g><path fill="#FF2D20" fill-rule="evenodd" d="M376.4 324.24c.04.1.05.21.05.32v17.3a1.25 1.25 0 01-.63 1.1l-14.55 8.36v16.57c0 .46-.24.87-.63 1.1l-30.38 17.45c-.07.04-.14.06-.22.09l-.08.04c-.21.05-.44.05-.65 0l-.1-.05c-.07-.02-.14-.04-.2-.08l-30.38-17.45a1.27 1.27 0 01-.63-1.1V316c0-.12.02-.23.04-.33l.05-.1c.02-.07.04-.14.08-.2.02-.05.06-.08.09-.12l.1-.14.13-.1c.05-.04.09-.08.14-.1l15.19-8.73a1.27 1.27 0 011.26 0l15.19 8.72.14.11.12.1c.05.04.08.1.11.14.03.04.07.07.09.12.04.06.06.13.08.2l.05.1c.02.1.04.22.04.33v32.42l12.65-7.27v-16.58c0-.1.02-.22.05-.32 0-.04.03-.08.04-.11l.08-.2.09-.1.11-.16.13-.1.13-.1 15.2-8.72a1.26 1.26 0 011.26 0l15.18 8.72.14.1.12.1.12.15.08.11c.04.06.06.13.09.2 0 .03.03.07.04.1zm-2.48 16.9v-14.4l-5.31 3.06-7.34 4.22v14.39l12.65-7.27zm-15.18 26.02v-14.4l-7.22 4.12-20.62 11.75v14.53l27.84-16zm-58.2-48.99v49l27.83 15.99v-14.53l-14.55-8.21v-.01c-.06-.03-.1-.07-.14-.1-.04-.04-.09-.06-.12-.1-.05-.04-.07-.09-.1-.13-.04-.05-.08-.08-.1-.13l-.07-.16-.06-.14c-.02-.06-.02-.13-.03-.19l-.02-.14v-33.88l-7.33-4.22-5.32-3.05zm13.91-9.45l-12.65 7.27 12.65 7.27 12.65-7.27-12.65-7.27zm6.58 45.36l7.34-4.22v-31.69l-5.31 3.06-7.35 4.21v31.7l5.32-3.06zM360 317.3l-12.65 7.26 12.65 7.27 12.65-7.27L360 317.3zm-1.26 16.72l-7.34-4.22-5.32-3.05v14.39l7.34 4.21 5.32 3.06v-14.39zm-29.1 32.42l18.55-10.57 9.27-5.28-12.64-7.26-14.55 8.36L317 359.3l12.63 7.13z" clip-rule="evenodd"/></g><defs><linearGradient id="paint0_linear" x1="0" x2="512" y1="0" y2="512" gradientUnits="userSpaceOnUse"><stop stop-color="#0183E2"/><stop offset="1" stop-color="#3A003F"/></linearGradient><linearGradient id="paint1_linear" x1="-528" x2="610" y1="264" y2="524" gradientUnits="userSpaceOnUse"><stop stop-color="#01001B"/><stop offset="1" stop-color="#0173F9"/></linearGradient><linearGradient id="paint2_linear" x1="256" x2="256" y1="104" y2="424" gradientUnits="userSpaceOnUse"><stop stop-color="#FFF500"/><stop offset="1" stop-color="#7AB400"/></linearGradient><linearGradient id="paint3_linear" x1="280" x2="280" y1="210" y2="286" gradientUnits="userSpaceOnUse"><stop stop-color="#0092FF"/><stop offset="1" stop-color="#002E73"/></linearGradient><linearGradient id="paint4_linear" x1="192" x2="192" y1="188" y2="264" gradientUnits="userSpaceOnUse"><stop stop-color="#0092FF"/><stop offset="1" stop-color="#002E73"/></linearGradient><linearGradient id="paint5_linear" x1="238" x2="238" y1="112" y2="188" gradientUnits="userSpaceOnUse"><stop stop-color="#0092FF"/><stop offset="1" stop-color="#002E73"/></linearGradient><filter id="filter0_d" width="350" height="350" x="81" y="93" color-interpolation-filters="sRGB" filterUnits="userSpaceOnUse"><feFlood flood-opacity="0" result="BackgroundImageFix"/><feColorMatrix in="SourceAlpha" values="0 0 0 0 0 0 0 0 0 0 0 0 0 0 0 0 0 0 127 0"/><feOffset dy="4"/><feGaussianBlur stdDeviation="7.5"/><feColorMatrix values="0 0 0 0 0 0 0 0 0 0 0 0 0 0 0 0 0 0 0.25 0"/><feBlend in2="BackgroundImageFix" result="effect1_dropShadow"/><feBlend in="SourceGraphic" in2="effect1_dropShadow" result="shape"/></filter><filter id="filter1_d" width="57.42" height="75.3" x="251.2" y="214.6" color-interpolation-filters="sRGB" filterUnits="userSpaceOnUse"><feFlood flood-opacity="0" result="BackgroundImageFix"/><feColorMatrix in="SourceAlpha" values="0 0 0 0 0 0 0 0 0 0 0 0 0 0 0 0 0 0 127 0"/><feOffset dy="4"/><feGaussianBlur stdDeviation="7.5"/><feColorMatrix values="0 0 0 0 0 0 0 0 0 0 0 0 0 0 0 0 0 0 0.25 0"/><feBlend in2="BackgroundImageFix" result="effect1_dropShadow"/><feBlend in="SourceGraphic" in2="effect1_dropShadow" result="shape"/></filter><filter id="filter2_d" width="57.78" height="74.4" x="162.6" y="192.6" color-interpolation-filters="sRGB" filterUnits="userSpaceOnUse"><feFlood flood-opacity="0" result="BackgroundImageFix"/><feColorMatrix in="SourceAlpha" values="0 0 0 0 0 0 0 0 0 0 0 0 0 0 0 0 0 0 127 0"/><feOffset dy="4"/><feGaussianBlur stdDeviation="7.5"/><feColorMatrix values="0 0 0 0 0 0 0 0 0 0 0 0 0 0 0 0 0 0 0.25 0"/><feBlend in2="BackgroundImageFix" result="effect1_dropShadow"/><feBlend in="SourceGraphic" in2="effect1_dropShadow" result="shape"/></filter><filter id="filter3_d" width="52.8" height="74.4" x="212.8" y="116.6" color-interpolation-filters="sRGB" filterUnits="userSpaceOnUse"><feFlood flood-opacity="0" result="BackgroundImageFix"/><feColorMatrix in="SourceAlpha" values="0 0 0 0 0 0 0 0 0 0 0 0 0 0 0 0 0 0 127 0"/><feOffset dy="4"/><feGaussianBlur stdDeviation="7.5"/><feColorMatrix values="0 0 0 0 0 0 0 0 0 0 0 0 0 0 0 0 0 0 0.25 0"/><feBlend in2="BackgroundImageFix" result="effect1_dropShadow"/><feBlend in="SourceGraphic" in2="effect1_dropShadow" result="shape"/></filter><clipPath id="clip0"><path fill="#fff" d="M0 0h512v512H0z"/></clipPath></defs></svg>
